<svg width="24" height="24" viewBox="0 0 24 24" fill="none" xmlns="http://www.w3.org/2000/svg">
<path d="M21.3125 0H2.6875C1.9375 0 1.29167 0.270833 0.75 0.8125C0.25 1.3125 0 1.9375 0 2.6875V21.3125C0 22.0625 0.25 22.7083 0.75 23.25C1.29167 23.75 1.9375 24 2.6875 24H21.3125C22.0625 24 22.6875 23.75 23.1875 23.25C23.7292 22.7083 24 22.0625 24 21.3125V2.6875C24 1.9375 23.7292 1.3125 23.1875 0.8125C22.6875 0.270833 22.0625 0 21.3125 0ZM12 20C11.5417 20 11.1458 19.8333 10.8125 19.5C10.4792 19.1667 10.3125 18.7708 10.3125 18.3125C10.3125 17.8542 10.4792 17.4583 10.8125 17.125C11.1458 16.7917 11.5417 16.625 12 16.625C12.5 16.625 12.8958 16.7917 13.1875 17.125C13.5208 17.4583 13.6875 17.8542 13.6875 18.3125C13.6875 18.7708 13.5208 19.1667 13.1875 19.5C12.8958 19.8333 12.5 20 12 20ZM16 10.125C15.5 10.875 15.0208 11.4375 14.5625 11.8125C14.1458 12.1458 13.8125 12.5417 13.5625 13C13.4375 13.2083 13.3542 13.4375 13.3125 13.6875C13.2708 13.8958 13.25 14.3125 13.25 14.9375H10.8125C10.8125 14.6042 10.8125 14.1875 10.8125 13.6875C10.8125 13.1875 10.9583 12.7083 11.25 12.25C11.5417 11.6667 11.9583 11.1875 12.5 10.8125C13.0417 10.3958 13.4792 9.91667 13.8125 9.375C14.1042 9.04167 14.2292 8.625 14.1875 8.125C14.1458 7.625 13.9375 7.1875 13.5625 6.8125C13.2292 6.4375 12.7083 6.25 12 6.25C11.2917 6.25 10.75 6.47917 10.375 6.9375C10 7.35417 9.75 7.79167 9.625 8.25L7.4375 7.3125C7.72917 6.4375 8.25 5.66667 9 5C9.79167 4.33333 10.7917 4 12 4C12.9583 4 13.7708 4.20833 14.4375 4.625C15.1458 5 15.6667 5.45833 16 6C16.2917 6.5 16.4792 7.14583 16.5625 7.9375C16.6458 8.72917 16.4583 9.45833 16 10.125Z" fill="white"/>
</svg>
