<svg width="28" height="23" viewBox="0 0 28 23" fill="none" xmlns="http://www.w3.org/2000/svg">
<path d="M6 5.6875C6 4.6875 6.22917 3.79167 6.6875 3C7.1875 2.16667 7.83333 1.52083 8.625 1.0625C9.45833 0.5625 10.3542 0.3125 11.3125 0.3125C12.3125 0.3125 13.2083 0.5625 14 1.0625C14.8333 1.52083 15.4792 2.16667 15.9375 3C16.4375 3.79167 16.6875 4.6875 16.6875 5.6875C16.6875 6.64583 16.4375 7.54167 15.9375 8.375C15.4792 9.16667 14.8333 9.8125 14 10.3125C13.2083 10.7708 12.3125 11 11.3125 11C10.3542 11 9.45833 10.7708 8.625 10.3125C7.83333 9.8125 7.1875 9.16667 6.6875 8.375C6.22917 7.54167 6 6.64583 6 5.6875ZM12.25 12.375C12.0833 12.375 11.9167 12.375 11.75 12.375C11.625 12.3333 11.4792 12.3125 11.3125 12.3125C9.72917 12.3125 8.1875 12.5417 6.6875 13C5.1875 13.4167 3.79167 14 2.5 14.75C1.91667 15.0833 1.45833 15.5625 1.125 16.1875C0.833333 16.8125 0.6875 17.4583 0.6875 18.125V21.6875H13C12.5 20.9375 12.0833 20.1042 11.75 19.1875C11.4583 18.2708 11.3125 17.3125 11.3125 16.3125C11.3125 15.6042 11.3958 14.9167 11.5625 14.25C11.7292 13.5833 11.9583 12.9583 12.25 12.375ZM25.6875 16.3125C25.6875 16.1875 25.6667 16.0625 25.625 15.9375C25.625 15.7708 25.6042 15.625 25.5625 15.5L27.125 14.125L25.75 11.8125L23.8125 12.5C23.3958 12.125 22.9167 11.8333 22.375 11.625L22 9.6875H19.3125L18.9375 11.625C18.3958 11.8333 17.9167 12.125 17.5 12.5L15.5625 11.8125L14.25 14.125L15.75 15.5C15.7083 15.625 15.6875 15.7708 15.6875 15.9375C15.6875 16.0625 15.6875 16.1875 15.6875 16.3125C15.6875 16.4792 15.6875 16.625 15.6875 16.75C15.6875 16.875 15.7083 17.0208 15.75 17.1875L14.25 18.5L15.5625 20.8125L17.5 20.1875C17.9167 20.5208 18.3958 20.7917 18.9375 21L19.3125 23H22L22.375 21C22.9167 20.7917 23.3958 20.5208 23.8125 20.1875L25.75 20.8125L27.125 18.5L25.5625 17.1875C25.6042 17.0208 25.625 16.875 25.625 16.75C25.6667 16.625 25.6875 16.4792 25.6875 16.3125ZM20.6875 19C19.9375 19 19.2917 18.75 18.75 18.25C18.25 17.7083 18 17.0625 18 16.3125C18 15.6042 18.25 15 18.75 14.5C19.2917 13.9583 19.9375 13.6875 20.6875 13.6875C21.3958 13.6875 22 13.9583 22.5 14.5C23.0417 15 23.3125 15.6042 23.3125 16.3125C23.3125 17.0625 23.0417 17.7083 22.5 18.25C22 18.75 21.3958 19 20.6875 19Z" fill="white"/>
</svg>
