<svg width="28" height="26" viewBox="0 0 28 26" fill="none" xmlns="http://www.w3.org/2000/svg">
<path d="M24.4375 8L21.4375 5C21.5208 4.41667 21.6458 3.89583 21.8125 3.4375C21.9375 3.1875 22 2.9375 22 2.6875C22 2.10417 21.7917 1.625 21.375 1.25C21 0.875 20.5417 0.6875 20 0.6875C18.9167 0.6875 17.8958 0.9375 16.9375 1.4375C16.0208 1.89583 15.2708 2.52083 14.6875 3.3125H8C6.66667 3.3125 5.4375 3.64583 4.3125 4.3125C3.1875 4.97917 2.29167 5.875 1.625 7C1 8.08333 0.6875 9.3125 0.6875 10.6875C0.6875 11.3542 0.75 12.1875 0.875 13.1875C1.04167 14.1875 1.25 15.2708 1.5 16.4375C1.79167 17.6042 2.0625 18.75 2.3125 19.875C2.60417 21 2.875 22.0208 3.125 22.9375C3.375 23.8542 3.58333 24.6042 3.75 25.1875C3.91667 25.7292 4 26 4 26H11.3125V23.3125H14V26H21.3125L23.5625 18.5625L27.3125 17.3125V8H24.4375ZM15.3125 10H8.6875V7.3125H15.3125V10ZM19.3125 12.6875C18.9792 12.6875 18.6667 12.5625 18.375 12.3125C18.125 12.0208 18 11.6875 18 11.3125C18 10.9792 18.125 10.6875 18.375 10.4375C18.6667 10.1458 18.9792 10 19.3125 10C19.6875 10 20 10.1458 20.25 10.4375C20.5417 10.6875 20.6875 10.9792 20.6875 11.3125C20.6875 11.6875 20.5417 12.0208 20.25 12.3125C20 12.5625 19.6875 12.6875 19.3125 12.6875Z" fill="white"/>
</svg>
